<svg width="11" height="11" viewBox="0 0 11 11" fill="none" xmlns="http://www.w3.org/2000/svg">
<path d="M5.12357 8.96652C5.16562 9.02759 5.22188 9.07752 5.28751 9.11202C5.35314 9.14651 5.42618 9.16454 5.50032 9.16454C5.57447 9.16454 5.6475 9.14651 5.71313 9.11202C5.77876 9.07752 5.83502 9.02759 5.87707 8.96652L10.0021 3.00819C10.0498 2.93946 10.0778 2.85897 10.083 2.77545C10.0882 2.69193 10.0705 2.60858 10.0316 2.53445C9.99279 2.46033 9.93439 2.39826 9.86276 2.355C9.79112 2.31174 9.709 2.28893 9.62532 2.28906H1.37532C1.29183 2.28941 1.21002 2.31251 1.13868 2.35587C1.06733 2.39924 1.00916 2.46123 0.970416 2.53518C0.931671 2.60914 0.913819 2.69226 0.91878 2.7756C0.923741 2.85894 0.951327 2.93935 0.998572 3.00819L5.12357 8.96652Z" fill="black"/>
</svg>
